# This file uses centimeters as units for non-parametric coordinates.

mtllib C_Bird.mtl
g default
v 0.168021 0.048232 -0.040192
v 0.230192 0.109263 -0.053909
v 0.017110 -0.008788 -0.075144
v 0.099692 0.119662 -0.139406
v -0.117157 0.014228 -0.048714
v -0.103281 0.087281 -0.072358
v -0.167797 0.013675 -0.042824
v -0.194084 0.069349 -0.054022
v -0.187467 -0.018667 -0.031361
v -0.244561 0.028818 -0.036156
v 0.071279 0.138292 -0.212270
v -0.264870 0.136607 -0.408569
v 0.197776 0.120883 -0.435351
v -0.234682 0.124346 -0.941821
v 0.335912 0.108319 -0.094958
v 0.491455 0.122743 -0.226688
v -0.169113 -0.059218 0.000000
v -0.241018 -0.034040 0.000000
v -0.173413 -0.024714 0.000000
v -0.161206 -0.004483 0.000000
v -0.120681 -0.002033 0.000000
v 0.006540 -0.035655 0.000000
v 0.175232 0.028941 0.000000
v 0.230192 0.119191 0.000000
v 0.099692 0.139974 0.000000
v -0.103281 0.108070 0.000000
v -0.201023 0.089650 0.000000
v -0.265357 0.040720 0.000000
v 0.355384 0.125261 0.000000
v 0.556793 0.159695 0.000000
v 0.168021 0.048232 0.040192
v 0.230192 0.109263 0.053909
v 0.017110 -0.008788 0.075144
v 0.099692 0.119662 0.139406
v -0.117157 0.014228 0.048714
v -0.103281 0.087281 0.072358
v -0.167797 0.013675 0.042824
v -0.194084 0.069349 0.054022
v -0.187467 -0.018667 0.031361
v -0.244561 0.028818 0.036156
v 0.071279 0.138292 0.212270
v -0.264870 0.136607 0.408569
v 0.197776 0.120883 0.435351
v -0.234682 0.124346 0.941821
v 0.335912 0.108319 0.094958
v 0.491455 0.122743 0.226688
vt 0.818506 0.619383
vt 0.883369 0.754208
vt 0.682427 0.792584
vt 0.517469 0.620614
vt 0.852004 0.549352
vt 0.973262 0.748288
vt 0.784908 0.987115
vt 0.474036 0.494735
vt 0.366233 0.850769
vt 0.296252 0.718879
vt 0.367646 0.986027
vt 0.259842 0.635402
vt 0.208707 0.861324
vt 0.207382 0.745616
vt 0.180937 0.962998
vt 0.192049 0.661838
vt 0.098157 0.841943
vt 0.138941 0.717751
vt 0.041601 0.893897
vt 0.150403 0.655903
vt 0.984904 0.238076
vt 0.985215 0.451465
vt 0.615999 0.499900
vt 0.906947 0.242307
vt 0.119704 0.305040
vt 0.734822 0.052803
vt 0.021935 0.743757
vt 0.093869 0.629327
vt 0.265599 0.014971
vt 0.424508 0.014971
vt 0.424508 0.083397
vt 0.290316 0.135502
vt 0.092883 0.302708
vt 0.009949 0.014971
vt 0.818506 0.619383
vt 0.883369 0.754208
vt 0.682427 0.792584
vt 0.517469 0.620614
vt 0.852004 0.549352
vt 0.973262 0.748288
vt 0.784908 0.987115
vt 0.474036 0.494735
vt 0.366233 0.850769
vt 0.296252 0.718879
vt 0.367646 0.986027
vt 0.259842 0.635402
vt 0.208707 0.861324
vt 0.207382 0.745616
vt 0.180937 0.962998
vt 0.192049 0.661838
vt 0.098157 0.841943
vt 0.138941 0.717751
vt 0.041601 0.893897
vt 0.150403 0.655903
vt 0.984904 0.238076
vt 0.985215 0.451465
vt 0.615999 0.499900
vt 0.906947 0.242307
vt 0.119704 0.305040
vt 0.734822 0.052803
vt 0.265599 0.014971
vt 0.424508 0.014971
vt 0.424508 0.083397
vt 0.290316 0.135502
vt 0.021935 0.743757
vt 0.093869 0.629327
vt 0.092883 0.302708
vt 0.009949 0.014971
vn 0.545064 -0.732060 -0.408648
vn 0.080579 -0.752482 -0.653665
vn 0.007211 0.757322 -0.653002
vn 0.686230 0.399139 -0.608093
vn 0.611886 -0.790946 0.000000
vn 0.553816 0.832639 0.000000
vn 0.168278 0.985739 0.000000
vn 0.075725 -0.997129 0.000000
vn -0.168110 -0.672276 -0.720960
vn -0.268504 0.702130 -0.659484
vn -0.187054 0.982350 0.000000
vn -0.187054 0.982350 0.000000
vn -0.120330 -0.992734 0.000000
vn 0.147827 -0.596366 -0.788984
vn -0.349401 0.353468 -0.867744
vn -0.448115 0.893976 -0.000000
vn -0.220100 0.975477 -0.000000
vn 0.457198 -0.889365 -0.000000
vn 0.405776 -0.407612 -0.818045
vn -0.588130 -0.132242 -0.797882
vn -0.965133 0.261760 -0.000000
vn 0.968985 -0.247120 0.000000
vn -0.040634 0.994984 0.091405
vn -0.040634 0.994984 0.091405
vn 0.032068 0.998956 -0.032544
vn 0.032068 0.998956 -0.032544
vn -0.116062 0.993242 0.000000
vn -0.114848 0.982853 -0.144254
vn 0.810502 -0.585735 0.000000
vn -0.806831 -0.590783 0.000000
vn -0.178192 0.983996 0.000000
vn -0.176967 0.977228 -0.117080
vn 0.545064 -0.732060 0.408648
vn 0.686230 0.399139 0.608093
vn 0.007211 0.757322 0.653002
vn 0.080579 -0.752482 0.653665
vn -0.268504 0.702130 0.659484
vn -0.168110 -0.672276 0.720960
vn -0.349401 0.353468 0.867744
vn 0.147827 -0.596366 0.788984
vn -0.588130 -0.132242 0.797882
vn 0.405776 -0.407612 0.818045
vn -0.040634 0.994984 -0.091405
vn -0.040634 0.994984 -0.091405
vn 0.032068 0.998956 0.032544
vn 0.032068 0.998956 0.032544
vn -0.114848 0.982853 0.144254
vn -0.176967 0.977228 0.117080
s 1
g C_Bird
usemtl initialShadingGroup
f 1/1/1 3/4/2 4/3/3 2/2/4
f 23/5/5 1/1/1 2/2/4 24/6/6
f 2/2/4 4/3/3 25/7/7 24/6/6
f 23/5/5 22/8/8 3/4/2 1/1/1
f 3/4/2 5/10/9 6/9/10 4/3/3
s 2
f 4/3/3 6/9/10 26/11/11 25/7/12
s 1
f 22/8/8 21/12/13 5/10/9 3/4/2
f 5/10/9 7/14/14 8/13/15 6/9/10
f 6/9/10 8/13/15 27/15/16 26/11/17
f 21/12/13 20/16/18 7/14/14 5/10/9
f 7/14/14 9/18/19 10/17/20 8/13/15
f 8/13/15 10/17/20 28/19/21 27/15/16
f 20/16/18 19/20/22 9/18/19 7/14/14
f 4/21/3 11/24/23 12/23/24 6/22/10
f 11/24/23 13/26/25 14/25/26 12/23/24
f 29/29/27 15/32/28 2/31/4 24/30/6
f 9/18/19 17/28/29 18/27/30 10/17/20
f 10/17/20 18/27/30 28/19/21
f 29/29/27 30/34/31 16/33/32 15/32/28
f 17/28/29 9/18/19 19/20/22
f 31/35/33 32/36/34 34/37/35 33/38/36
f 23/39/5 24/40/6 32/36/34 31/35/33
f 32/36/34 24/40/6 25/41/7 34/37/35
f 23/39/5 31/35/33 33/38/36 22/42/8
f 33/38/36 34/37/35 36/43/37 35/44/38
s 2
f 34/37/35 25/41/12 26/45/11 36/43/37
s 1
f 22/42/8 33/38/36 35/44/38 21/46/13
f 35/44/38 36/43/37 38/47/39 37/48/40
f 36/43/37 26/45/17 27/49/16 38/47/39
f 21/46/13 35/44/38 37/48/40 20/50/18
f 37/48/40 38/47/39 40/51/41 39/52/42
f 38/47/39 27/49/16 28/53/21 40/51/41
f 20/50/18 37/48/40 39/52/42 19/54/22
f 34/55/35 36/56/37 42/57/43 41/58/44
f 41/58/44 42/57/43 44/59/45 43/60/46
f 29/61/27 24/62/6 32/63/34 45/64/47
f 39/52/42 40/51/41 18/65/30 17/66/29
f 40/51/41 28/53/21 18/65/30
f 29/61/27 45/64/47 46/67/48 30/68/31
f 17/66/29 19/54/22 39/52/42
