# This file uses centimeters as units for non-parametric coordinates.

mtllib C_Rat.mtl
g default
v -0.292760 0.027174 -0.271782
v -0.265775 0.110838 -0.257336
v -0.410487 0.069400 -0.065000
v -0.058943 0.000000 -0.140927
v 0.460947 0.000000 -0.120331
v -0.058943 0.135688 -0.096263
v 0.408459 0.161274 -0.131570
v -0.415634 0.000000 -0.082212
v -0.411169 0.109972 -0.071085
v 0.180746 0.258803 -0.173706
v 0.189203 0.000000 -0.250862
v -0.229020 0.185370 -0.120034
v -0.229020 0.000000 -0.157349
v -0.229020 0.243647 0.000000
v -0.058943 0.201673 0.000000
v 0.193550 0.339395 0.000000
v 0.438286 0.235477 0.000000
v -0.440299 0.000000 0.000000
v -0.430642 0.121364 0.000000
v 0.509031 0.000000 0.000000
v 0.491622 0.081994 0.000000
v 0.496108 0.000000 -0.035696
v 0.481209 0.059982 -0.039030
v 0.716028 0.013122 -0.006479
v 0.698030 0.069865 0.000000
v 0.707840 0.041172 -0.028336
v 0.970131 0.115300 0.000000
v 0.963562 0.136007 0.000000
v 0.967264 0.125162 -0.010341
v -0.292760 0.027174 0.271782
v -0.265775 0.110838 0.257336
v -0.410487 0.069400 0.065000
v -0.058943 0.000000 0.140927
v 0.460947 0.000000 0.120331
v -0.058943 0.135688 0.096263
v 0.408459 0.161274 0.131570
v -0.415634 0.000000 0.082212
v -0.411169 0.109972 0.071085
v 0.180746 0.258803 0.173706
v 0.189203 0.000000 0.250862
v -0.229020 0.185370 0.120034
v -0.229020 0.000000 0.157349
v 0.496108 0.000000 0.035696
v 0.481209 0.059982 0.039030
v 0.716028 0.013122 0.006479
v 0.707840 0.041172 0.028336
v 0.967264 0.125162 0.010341
v -0.185333 0.279147 0.106444
v -0.213433 0.235623 0.082196
v -0.208815 0.181916 0.105779
v -0.176096 0.171733 0.153608
v -0.147996 0.215258 0.177855
v -0.152614 0.268964 0.154273
v -0.195401 0.304242 0.102193
v -0.235632 0.241928 0.067478
v -0.229020 0.165036 0.101241
v -0.182177 0.150458 0.169719
v -0.141946 0.212771 0.204433
v -0.148558 0.289663 0.170671
v -0.176678 0.224485 0.127061
v -0.192826 0.228304 0.138921
v -0.185333 0.279147 -0.106444
v -0.213433 0.235623 -0.082196
v -0.208815 0.181916 -0.105779
v -0.176096 0.171733 -0.153608
v -0.147996 0.215258 -0.177855
v -0.152614 0.268964 -0.154273
v -0.195401 0.304242 -0.102193
v -0.235632 0.241928 -0.067478
v -0.229020 0.165036 -0.101241
v -0.182177 0.150458 -0.169719
v -0.141946 0.212771 -0.204433
v -0.148558 0.289663 -0.170671
v -0.176678 0.224485 -0.127061
v -0.192826 0.228304 -0.138921
vt 0.979221 0.513500
vt 0.979221 0.715992
vt 0.436590 0.600793
vt 0.408824 0.086126
vt 0.642962 0.030279
vt 0.637067 0.254368
vt 0.410962 0.212976
vt 0.263781 0.229542
vt 0.260611 0.070237
vt 0.915497 0.093703
vt 0.832254 0.209529
vt 0.103202 0.192148
vt 0.079345 0.102960
vt 0.404959 0.319461
vt 0.248313 0.340770
vt 0.653949 0.413296
vt 0.885840 0.326190
vt 0.716096 0.445409
vt 0.713045 0.483888
vt 0.713205 0.463595
vt 0.056405 0.233888
vt 0.009722 0.134291
vt 0.958086 0.175437
vt 0.977292 0.210837
vt 0.986236 0.129874
vt 0.048809 0.419339
vt 0.066648 0.370882
vt 0.348687 0.381418
vt 0.068635 0.559312
vt 0.040978 0.503171
vt 0.342919 0.430843
vt 0.340566 0.487389
vt 0.979221 0.513500
vt 0.979221 0.715992
vt 0.436590 0.600793
vt 0.408824 0.086126
vt 0.642962 0.030279
vt 0.637067 0.254368
vt 0.410962 0.212976
vt 0.263781 0.229542
vt 0.260611 0.070237
vt 0.915497 0.093703
vt 0.832254 0.209529
vt 0.103202 0.192148
vt 0.079345 0.102960
vt 0.404959 0.319461
vt 0.248313 0.340770
vt 0.653949 0.413296
vt 0.885840 0.326190
vt 0.716096 0.445409
vt 0.713045 0.483888
vt 0.713205 0.463595
vt 0.056405 0.233888
vt 0.009722 0.134291
vt 0.958086 0.175437
vt 0.977292 0.210837
vt 0.986236 0.129874
vt 0.048809 0.419339
vt 0.066648 0.370882
vt 0.348687 0.381418
vt 0.068635 0.559312
vt 0.040978 0.503171
vt 0.342919 0.430843
vt 0.340566 0.487389
vt 0.169573 0.766078
vt 0.260510 0.766703
vt 0.281731 0.805342
vt 0.147634 0.804445
vt 0.306670 0.685394
vt 0.349648 0.685791
vt 0.262051 0.603295
vt 0.283970 0.565114
vt 0.171207 0.602194
vt 0.150180 0.563457
vt 0.124590 0.683311
vt 0.081454 0.682836
vt 0.215762 0.684490
vt 0.319809 0.745645
vt 0.454226 0.745651
vt 0.387013 0.866473
vt 0.521438 0.866477
vt 0.454216 0.987298
vt 0.319801 0.987293
vt 0.252587 0.866468
vt 0.169573 0.766078
vt 0.147634 0.804445
vt 0.281731 0.805342
vt 0.260510 0.766703
vt 0.349648 0.685791
vt 0.306670 0.685394
vt 0.283970 0.565114
vt 0.262051 0.603295
vt 0.150180 0.563457
vt 0.171207 0.602194
vt 0.081454 0.682836
vt 0.124590 0.683311
vt 0.215762 0.684490
vt 0.319809 0.745645
vt 0.387013 0.866473
vt 0.454226 0.745651
vt 0.521438 0.866477
vt 0.454216 0.987298
vt 0.319801 0.987293
vt 0.252587 0.866468
vn -0.132266 0.263875 -0.955445
vn -0.135570 0.610404 -0.780402
vn -0.042811 0.609001 -0.792014
vn -0.026339 0.247123 -0.968626
vn -0.100570 0.207474 -0.973057
vn -0.116717 0.600128 -0.791343
vn 0.687076 0.422725 -0.590957
vn 0.666456 0.235657 -0.707320
vn -0.727050 0.127999 -0.674548
vn -0.686278 0.406290 -0.603283
vn -0.123026 0.992403 0.000000
vn -0.133512 0.991047 -0.000000
vn -0.059713 0.998216 -0.000000
vn 0.753584 0.657351 0.000000
vn 0.973606 -0.228234 -0.000000
vn 0.561506 0.205104 -0.801651
vn 0.633842 0.773463 -0.000000
vn -0.848126 0.529794 -0.000000
vn -0.997187 0.074953 -0.000000
vn 0.655209 0.755448 0.000000
vn 0.596658 0.337390 -0.728126
vn 0.514829 -0.504574 -0.693078
vn 0.153118 -0.713490 -0.683730
vn 0.062544 -0.997785 -0.022643
vn -0.063067 0.998009 -0.000000
vn 0.076209 0.197221 -0.977392
vn -0.784755 0.342329 0.516693
vn -0.784755 0.342329 0.516693
vn -0.784755 0.342329 0.516693
vn -0.132266 0.263875 0.955445
vn -0.026338 0.247123 0.968626
vn -0.042811 0.609001 0.792014
vn -0.135570 0.610404 0.780402
vn -0.116717 0.600128 0.791343
vn -0.100570 0.207474 0.973057
vn 0.666456 0.235657 0.707320
vn 0.687076 0.422726 0.590957
vn -0.686278 0.406290 0.603283
vn -0.727050 0.127999 0.674548
vn 0.561506 0.205104 0.801651
vn 0.596658 0.337390 0.728126
vn 0.514829 -0.504573 0.693078
vn 0.062544 -0.997785 0.022643
vn 0.153118 -0.713490 0.683730
vn 0.076209 0.197222 0.977392
vn 0.756673 0.030692 -0.653073
vn 0.640500 -0.149247 -0.753317
vn 0.524596 -0.120363 -0.842800
vn 0.712388 0.170504 -0.680758
vn 0.653137 -0.361830 -0.665200
vn 0.544260 -0.463509 -0.699243
vn 0.784164 -0.395078 -0.478539
vn 0.756969 -0.517986 -0.398358
vn 0.900337 -0.215139 -0.378296
vn 0.944760 -0.227119 -0.236317
vn 0.885439 -0.002022 -0.464752
vn 0.919307 0.117395 -0.375622
vn 0.791736 -0.187234 -0.581461
vn -0.793850 0.242752 0.557560
vn -0.824380 0.195465 0.531216
vn -0.791736 0.187234 0.581461
vn -0.820735 0.139587 0.553995
vn -0.786726 0.131032 0.603236
vn -0.756195 0.178319 0.629580
vn -0.759677 0.234158 0.606681
vn 0.756673 0.030692 0.653072
vn 0.712388 0.170504 0.680758
vn 0.524596 -0.120363 0.842800
vn 0.640500 -0.149247 0.753316
vn 0.544260 -0.463509 0.699243
vn 0.653137 -0.361830 0.665200
vn 0.756969 -0.517986 0.398358
vn 0.784164 -0.395078 0.478539
vn 0.944760 -0.227119 0.236317
vn 0.900337 -0.215139 0.378296
vn 0.919308 0.117395 0.375622
vn 0.885439 -0.002022 0.464752
vn 0.791736 -0.187234 0.581461
vn -0.793850 0.242752 -0.557560
vn -0.791736 0.187234 -0.581461
vn -0.824380 0.195465 -0.531216
vn -0.820735 0.139587 -0.553995
vn -0.786726 0.131032 -0.603236
vn -0.756196 0.178319 -0.629580
vn -0.759677 0.234158 -0.606681
vn -0.784755 0.342329 -0.516693
vn -0.784755 0.342329 -0.516693
vn -0.784755 0.342329 -0.516693
s 1
g C_Rat
usemtl lambert5SG
f 4/4/1 6/7/2 10/6/3 11/5/4
f 4/4/1 13/9/5 12/8/6 6/7/2
f 10/6/3 7/11/7 5/10/8 11/5/4
f 13/9/5 8/13/9 9/12/10 12/8/6
f 6/7/2 12/8/6 14/15/11 15/14/12
f 6/7/2 15/14/12 16/16/13 10/6/3
f 10/6/3 16/16/13 17/17/14 7/11/7
f 27/18/15 29/20/16 28/19/17
f 19/21/18 9/12/10 8/13/9 18/22/19
f 12/8/6 9/12/10 19/21/18 14/15/11
f 17/17/14 21/24/20 23/23/21 7/11/7
f 7/11/7 23/23/21 22/25/22 5/10/8
f 22/26/22 24/28/23 20/27/24
f 21/29/20 25/32/25 26/31/26 23/30/21
f 23/30/21 26/31/26 24/28/23 22/26/22
f 25/32/25 28/19/17 29/20/16 26/31/26
f 26/31/26 29/20/16 27/18/15 24/28/23
s off
f 30/33/27 31/34/28 32/35/29
s 1
f 33/36/30 40/37/31 39/38/32 35/39/33
f 33/36/30 35/39/33 41/40/34 42/41/35
f 39/38/32 40/37/31 34/42/36 36/43/37
f 42/41/35 41/40/34 38/44/38 37/45/39
f 35/39/33 15/46/12 14/47/11 41/40/34
f 35/39/33 39/38/32 16/48/13 15/46/12
f 39/38/32 36/43/37 17/49/14 16/48/13
f 27/50/15 28/51/17 47/52/40
f 19/53/18 18/54/19 37/45/39 38/44/38
f 41/40/34 14/47/11 19/53/18 38/44/38
f 17/49/14 36/43/37 44/55/41 21/56/20
f 36/43/37 34/42/36 43/57/42 44/55/41
f 43/58/42 20/59/43 45/60/44
f 21/61/20 44/62/41 46/63/45 25/64/25
f 44/62/41 43/58/42 45/60/44 46/63/45
f 25/64/25 46/63/45 47/52/40 28/51/17
f 46/63/45 45/60/44 27/50/15 47/52/40
s 2
f 48/65/46 49/66/47 55/67/48 54/68/49
f 49/66/47 50/69/50 56/70/51 55/67/48
f 50/69/50 51/71/52 57/72/53 56/70/51
f 51/71/52 52/73/54 58/74/55 57/72/53
f 52/73/54 53/75/56 59/76/57 58/74/55
f 53/75/56 48/65/46 54/68/49 59/76/57
f 49/66/47 48/65/46 60/77/58
f 50/69/50 49/66/47 60/77/58
f 51/71/52 50/69/50 60/77/58
f 52/73/54 51/71/52 60/77/58
f 53/75/56 52/73/54 60/77/58
f 48/65/46 53/75/56 60/77/58
s 3
f 54/78/59 55/79/60 61/80/61
f 55/79/60 56/81/62 61/80/61
f 56/81/62 57/82/63 61/80/61
f 57/82/63 58/83/64 61/80/61
f 58/83/64 59/84/65 61/80/61
f 59/84/65 54/78/59 61/80/61
s 4
f 62/85/66 68/86/67 69/87/68 63/88/69
f 63/88/69 69/87/68 70/89/70 64/90/71
f 64/90/71 70/89/70 71/91/72 65/92/73
f 65/92/73 71/91/72 72/93/74 66/94/75
f 66/94/75 72/93/74 73/95/76 67/96/77
f 67/96/77 73/95/76 68/86/67 62/85/66
f 63/88/69 74/97/78 62/85/66
f 64/90/71 74/97/78 63/88/69
f 65/92/73 74/97/78 64/90/71
f 66/94/75 74/97/78 65/92/73
f 67/96/77 74/97/78 66/94/75
f 62/85/66 74/97/78 67/96/77
s 5
f 68/98/79 75/99/80 69/100/81
f 69/100/81 75/99/80 70/101/82
f 70/101/82 75/99/80 71/102/83
f 71/102/83 75/99/80 72/103/84
f 72/103/84 75/99/80 73/104/85
f 73/104/85 75/99/80 68/98/79
s off
f 1/1/86 3/3/87 2/2/88
