# This file uses centimeters as units for non-parametric coordinates.

mtllib SM_Rock.mtl
g default
v -0.304955 0.134834 0.312452
v 0.317866 0.125752 0.306354
v -0.286148 0.701200 0.278496
v 0.275076 0.720678 0.278644
v -0.253287 0.709762 -0.263762
v 0.306063 0.726798 -0.279279
v -0.295722 0.146206 -0.290057
v 0.278408 0.139220 -0.293586
v 0.000000 0.438338 0.438338
v 0.008701 0.058349 0.382470
v 0.344220 0.433708 0.346736
v 0.003391 0.753140 0.312952
v -0.364350 0.438338 0.390320
v 0.000730 0.878585 0.000239
v 0.322418 0.762547 0.012764
v 0.017661 0.769272 -0.328168
v -0.342209 0.787214 0.004953
v 0.000000 0.438338 -0.438338
v 0.343551 0.429769 -0.340620
v -0.004566 0.070780 -0.366310
v -0.338384 0.423288 -0.342373
v 0.000000 0.000000 0.000000
v 0.354658 0.082320 -0.003744
v -0.390158 0.056469 0.005121
v 0.521655 0.431051 -0.003246
v -0.444985 0.438342 -0.000809
v -0.189838 0.248542 0.402791
v -0.358156 0.246850 0.363511
v -0.188762 0.074225 0.373316
v 0.008406 0.233485 0.422072
v -0.219169 0.438338 0.438338
v -0.178525 0.801291 0.170984
v -0.312394 0.738274 0.169731
v -0.175034 0.732585 0.299338
v 0.002922 0.831153 0.173236
v -0.186250 0.844223 0.009281
v -0.169020 0.613511 -0.371307
v -0.282243 0.592755 -0.289835
v -0.169810 0.774168 -0.330158
v 0.014621 0.628134 -0.403250
v -0.219169 0.438338 -0.438338
v -0.219169 0.000000 -0.219169
v -0.357277 0.087938 -0.190064
v -0.200725 0.095542 -0.342505
v 0.000000 0.000000 -0.219169
v -0.223239 -0.013270 -0.000828
v 0.422220 0.225672 0.202931
v 0.360032 0.245399 0.353420
v 0.349574 0.087839 0.182864
v 0.436393 0.220560 0.000072
v 0.461743 0.437089 0.214046
v -0.385961 0.247615 -0.185262
v -0.317813 0.256117 -0.321423
v -0.420756 0.240408 0.004557
v -0.389740 0.426306 -0.178899
v 0.221091 0.224451 0.432369
v 0.212263 0.071469 0.365546
v 0.218516 0.438337 0.437743
v 0.194816 0.633746 0.420165
v 0.311508 0.608723 0.318375
v 0.177725 0.767693 0.322949
v -0.003037 0.620948 0.402586
v -0.200886 0.618802 0.392139
v -0.359742 0.621042 0.354338
v 0.191893 0.875325 0.196878
v 0.311959 0.760877 0.177842
v 0.219050 0.876601 0.000043
v 0.219411 0.861508 -0.203927
v 0.316695 0.749440 -0.162690
v 0.198223 0.757118 -0.312683
v -0.003232 0.900337 -0.229177
v -0.180085 0.855223 -0.189689
v -0.279529 0.737818 -0.150947
v 0.219799 0.652830 -0.433364
v 0.353635 0.624553 -0.342738
v 0.219169 0.438338 -0.438338
v 0.219169 0.219169 -0.438338
v 0.316511 0.251246 -0.322421
v 0.201360 0.055606 -0.377864
v -0.000644 0.229562 -0.427768
v -0.219169 0.219169 -0.438338
v 0.219169 0.000000 -0.219169
v 0.309742 0.117110 -0.175322
v 0.217316 0.001864 -0.000238
v 0.218861 0.000572 0.218762
v 0.000154 -0.031888 0.219967
v -0.221231 -0.017094 0.220093
v -0.371836 0.066565 0.221015
v 0.377351 0.255122 -0.180448
v 0.438338 0.438338 -0.219169
v 0.393920 0.624327 -0.184070
v 0.454718 0.643488 0.015827
v 0.395428 0.620169 0.190190
v -0.432836 0.224482 0.219701
v -0.438338 0.438338 0.219169
v -0.432661 0.652770 0.216644
v -0.391393 0.619983 0.017415
v -0.337377 0.595261 -0.151868
vt 0.375000 0.000000
vt 0.625000 0.000000
vt 0.375000 0.250000
vt 0.625000 0.250000
vt 0.375000 0.500000
vt 0.625000 0.500000
vt 0.375000 0.750000
vt 0.625000 0.750000
vt 0.375000 1.000000
vt 0.625000 1.000000
vt 0.875000 0.000000
vt 0.875000 0.250000
vt 0.125000 0.000000
vt 0.125000 0.250000
vt 0.500000 0.125000
vt 0.500000 0.000000
vt 0.500000 1.000000
vt 0.625000 0.125000
vt 0.500000 0.250000
vt 0.375000 0.125000
vt 0.500000 0.375000
vt 0.625000 0.375000
vt 0.750000 0.250000
vt 0.500000 0.500000
vt 0.250000 0.250000
vt 0.375000 0.375000
vt 0.500000 0.625000
vt 0.625000 0.625000
vt 0.875000 0.125000
vt 0.500000 0.750000
vt 0.125000 0.125000
vt 0.375000 0.625000
vt 0.500000 0.875000
vt 0.625000 0.875000
vt 0.750000 0.000000
vt 0.500000 1.000000
vt 0.250000 0.000000
vt 0.375000 0.875000
vt 0.750000 0.125000
vt 0.750000 0.000000
vt 0.875000 0.125000
vt 0.750000 0.250000
vt 0.250000 0.125000
vt 0.250000 0.000000
vt 0.250000 0.250000
vt 0.125000 0.125000
vt 0.437500 0.062500
vt 0.375000 0.062500
vt 0.437500 0.000000
vt 0.437500 1.000000
vt 0.500000 0.062500
vt 0.437500 0.125000
vt 0.437500 0.312500
vt 0.312500 0.250000
vt 0.375000 0.312500
vt 0.437500 0.250000
vt 0.500000 0.312500
vt 0.437500 0.375000
vt 0.437500 0.562500
vt 0.125000 0.187500
vt 0.375000 0.562500
vt 0.437500 0.500000
vt 0.500000 0.562500
vt 0.437500 0.625000
vt 0.437500 0.812500
vt 0.187500 0.000000
vt 0.375000 0.812500
vt 0.437500 0.750000
vt 0.500000 0.812500
vt 0.437500 0.875000
vt 0.687500 0.062500
vt 0.625000 0.062500
vt 0.625000 0.937500
vt 0.687500 0.000000
vt 0.750000 0.062500
vt 0.687500 0.125000
vt 0.187500 0.062500
vt 0.125000 0.062500
vt 0.375000 0.687500
vt 0.187500 0.000000
vt 0.250000 0.062500
vt 0.187500 0.125000
vt 0.562500 0.062500
vt 0.562500 0.000000
vt 0.562500 1.000000
vt 0.562500 0.125000
vt 0.562500 0.187500
vt 0.625000 0.187500
vt 0.562500 0.250000
vt 0.500000 0.187500
vt 0.437500 0.187500
vt 0.375000 0.187500
vt 0.562500 0.312500
vt 0.625000 0.312500
vt 0.687500 0.250000
vt 0.562500 0.375000
vt 0.562500 0.437500
vt 0.625000 0.437500
vt 0.812500 0.250000
vt 0.562500 0.500000
vt 0.500000 0.437500
vt 0.437500 0.437500
vt 0.187500 0.250000
vt 0.375000 0.437500
vt 0.562500 0.562500
vt 0.625000 0.562500
vt 0.875000 0.187500
vt 0.562500 0.625000
vt 0.562500 0.687500
vt 0.625000 0.687500
vt 0.875000 0.062500
vt 0.562500 0.750000
vt 0.500000 0.687500
vt 0.437500 0.687500
vt 0.375000 0.687500
vt 0.562500 0.812500
vt 0.625000 0.812500
vt 0.812500 0.000000
vt 0.562500 0.875000
vt 0.562500 0.937500
vt 0.625000 0.937500
vt 0.562500 1.000000
vt 0.500000 0.937500
vt 0.437500 0.937500
vt 0.437500 1.000000
vt 0.312500 0.000000
vt 0.375000 0.937500
vt 0.812500 0.062500
vt 0.812500 0.000000
vt 0.875000 0.062500
vt 0.812500 0.125000
vt 0.812500 0.187500
vt 0.875000 0.187500
vt 0.812500 0.250000
vt 0.750000 0.187500
vt 0.687500 0.187500
vt 0.687500 0.250000
vt 0.312500 0.062500
vt 0.312500 0.000000
vt 0.312500 0.125000
vt 0.312500 0.187500
vt 0.312500 0.250000
vt 0.250000 0.187500
vt 0.187500 0.187500
vt 0.187500 0.250000
vt 0.125000 0.187500
vn -0.154408 0.034756 0.987396
vn -0.645859 0.016843 0.763271
vn -0.600364 -0.255648 0.757765
vn -0.195215 -0.208463 0.958350
vn -0.338388 0.934417 0.111172
vn -0.721829 0.687593 -0.078604
vn -0.520788 0.803350 0.288807
vn -0.261204 0.893382 0.365569
vn -0.369023 0.164542 -0.914739
vn -0.818105 0.164067 -0.551168
vn -0.773691 0.347414 -0.529816
vn -0.369295 0.341599 -0.864252
vn -0.225686 -0.972636 -0.055183
vn -0.788084 -0.610649 -0.077657
vn -0.772007 -0.499565 -0.392988
vn -0.289548 -0.891545 -0.348295
vn 0.904990 0.069544 0.419711
vn 0.705293 0.116336 0.699305
vn 0.718300 -0.235340 0.654722
vn 0.895640 -0.332821 0.295058
vn -0.939190 0.131984 -0.317020
vn -0.806837 -0.203786 -0.554514
vn -0.934266 -0.132612 -0.331000
vn -0.035518 -0.173262 0.984235
vn -0.007173 -0.613156 0.789929
vn 0.344518 -0.636214 0.690318
vn 0.285751 -0.197335 0.937766
vn 0.291320 0.079930 0.953281
vn 0.688200 0.360548 0.629592
vn 0.295240 0.378248 0.877361
vn -0.066587 0.391955 0.917571
vn -0.131236 0.726437 0.674586
vn -0.207601 0.768690 0.604994
vn -0.155101 0.454462 0.877159
vn -0.151524 0.920246 0.360817
vn 0.250087 0.674835 0.694301
vn 0.291816 0.883217 0.367111
vn 0.398498 0.916145 0.043336
vn 0.746685 0.665121 0.008651
vn 0.744126 0.628406 -0.226675
vn 0.450844 0.823203 -0.345074
vn -0.028811 0.930307 -0.365649
vn -0.032206 0.603498 -0.796714
vn -0.447543 0.516381 -0.730107
vn -0.456911 0.833708 -0.310104
vn -0.075730 0.348002 -0.934430
vn 0.308832 0.677439 -0.667607
vn 0.258223 0.387112 -0.885136
vn 0.319208 -0.003564 -0.947678
vn 0.775850 -0.064330 -0.627629
vn 0.809806 -0.277475 -0.516935
vn 0.395682 -0.220351 -0.891561
vn -0.029209 -0.226693 -0.973528
vn -0.063184 -0.692034 -0.719095
vn -0.367744 -0.627560 -0.686245
vn -0.393183 -0.283266 -0.874738
vn -0.023067 -0.970665 -0.239328
vn 0.451000 -0.630234 -0.631984
vn 0.404269 -0.887012 -0.223108
vn 0.335653 -0.940620 -0.050714
vn 0.749421 -0.653990 -0.103270
vn 0.725732 -0.654446 0.212165
vn 0.347357 -0.915160 0.204514
vn 0.030273 -0.976990 0.211127
vn -0.272029 -0.539117 0.797090
vn -0.268450 -0.919070 0.288522
vn 0.905367 -0.408300 -0.116623
vn 0.801775 -0.530601 -0.274991
vn 0.848348 -0.374436 -0.374304
vn 0.909311 -0.058221 -0.412024
vn 0.754988 0.356358 -0.550456
vn 0.864464 0.408734 -0.292642
vn 0.867867 0.496776 -0.004571
vn 0.718261 0.610771 0.333257
vn 0.805680 0.432870 0.404356
vn -0.983820 -0.143055 -0.107856
vn -0.716048 -0.608892 0.341358
vn -0.941408 -0.208413 0.265170
vn -0.980362 0.023400 0.195811
vn -0.513581 0.508763 0.690938
vn -0.874795 0.438729 0.205547
vn -0.920043 0.335359 -0.202620
vn -0.797271 0.509438 -0.323777
vn -0.885337 0.322037 -0.335366
vn -0.533842 -0.464516 0.706567
vn -0.036439 0.043099 0.998406
vn -0.343827 0.791791 0.504828
vn -0.096640 0.988135 0.119376
vn -0.786296 0.387753 -0.481027
vn -0.040930 0.084365 -0.995594
vn -0.707315 -0.414450 -0.572657
vn 0.027284 -0.998590 -0.045529
vn 0.664533 -0.546341 0.509812
vn 0.998329 -0.010275 -0.056866
vn -0.982354 0.081432 -0.168372
vn 0.650878 0.516739 0.556182
vn 0.650990 0.632052 -0.420384
vn 0.828741 -0.413642 -0.376946
s 1
g SM_ROCK_SOLO1
usemtl lambert2SG
f 31/52/1 13/20/2 28/48/3 27/47/4
f 36/58/5 17/26/6 33/55/7 32/53/8
f 41/64/9 21/32/10 38/61/11 37/59/12
f 46/70/13 24/38/14 43/67/15 42/65/16
f 51/76/17 11/18/18 48/72/19 47/71/20
f 55/82/21 21/46/10 53/78/22 52/77/23
f 30/51/24 10/16/25 57/84/26 56/83/27
f 58/86/28 11/18/18 60/88/29 59/87/30
f 62/90/31 12/19/32 34/56/33 63/91/34
f 35/57/35 12/19/32 61/89/36 65/93/37
f 67/96/38 15/22/39 69/98/40 68/97/41
f 71/101/42 16/24/43 39/62/44 72/102/45
f 40/63/46 16/24/43 70/100/47 74/105/48
f 76/108/49 19/28/50 78/110/51 77/109/52
f 80/113/53 20/30/54 44/68/55 81/114/56
f 45/69/57 20/30/54 79/112/58 82/116/59
f 84/119/60 23/34/61 49/121/62 85/120/63
f 86/123/64 10/36/25 29/125/65 87/124/66
f 50/75/67 23/40/61 83/129/68 89/128/69
f 90/131/70 19/41/50 75/133/71 91/132/72
f 92/135/73 15/42/39 66/137/74 93/136/75
f 54/81/76 24/44/14 88/139/77 94/138/78
f 95/140/79 13/20/2 64/92/80 96/141/81
f 97/143/82 17/45/6 73/145/83 98/144/84
f 28/48/3 1/1/85 29/49/65 27/47/4
f 29/49/65 10/16/25 30/51/24 27/47/4
f 30/51/24 9/15/86 31/52/1 27/47/4
f 33/55/7 3/3/87 34/56/33 32/53/8
f 34/56/33 12/19/32 35/57/35 32/53/8
f 35/57/35 14/21/88 36/58/5 32/53/8
f 38/61/11 5/5/89 39/62/44 37/59/12
f 39/62/44 16/24/43 40/63/46 37/59/12
f 40/63/46 18/27/90 41/64/9 37/59/12
f 43/67/15 7/7/91 44/68/55 42/65/16
f 44/68/55 20/30/54 45/69/57 42/65/16
f 45/69/57 22/33/92 46/70/13 42/65/16
f 48/72/19 2/2/93 49/74/62 47/71/20
f 49/74/62 23/40/61 50/75/67 47/71/20
f 50/75/67 25/39/94 51/76/17 47/71/20
f 53/78/22 7/13/91 43/80/15 52/77/23
f 43/80/15 24/44/14 54/81/76 52/77/23
f 54/81/76 26/43/95 55/82/21 52/77/23
f 57/84/26 2/2/93 48/72/19 56/83/27
f 48/72/19 11/18/18 58/86/28 56/83/27
f 58/86/28 9/15/86 30/51/24 56/83/27
f 60/88/29 4/4/96 61/89/36 59/87/30
f 61/89/36 12/19/32 62/90/31 59/87/30
f 62/90/31 9/15/86 58/86/28 59/87/30
f 34/56/33 3/3/87 64/92/80 63/91/34
f 64/92/80 13/20/2 31/52/1 63/91/34
f 31/52/1 9/15/86 62/90/31 63/91/34
f 61/89/36 4/4/96 66/94/74 65/93/37
f 66/94/74 15/22/39 67/96/38 65/93/37
f 67/96/38 14/21/88 35/57/35 65/93/37
f 69/98/40 6/6/97 70/100/47 68/97/41
f 70/100/47 16/24/43 71/101/42 68/97/41
f 71/101/42 14/21/88 67/96/38 68/97/41
f 39/62/44 5/5/89 73/104/83 72/102/45
f 73/104/83 17/26/6 36/58/5 72/102/45
f 36/58/5 14/21/88 71/101/42 72/102/45
f 70/100/47 6/6/97 75/106/71 74/105/48
f 75/106/71 19/28/50 76/108/49 74/105/48
f 76/108/49 18/27/90 40/63/46 74/105/48
f 78/110/51 8/8/98 79/112/58 77/109/52
f 79/112/58 20/30/54 80/113/53 77/109/52
f 80/113/53 18/27/90 76/108/49 77/109/52
f 44/68/55 7/7/91 53/115/22 81/114/56
f 53/115/22 21/32/10 41/64/9 81/114/56
f 41/64/9 18/27/90 80/113/53 81/114/56
f 79/112/58 8/8/98 83/117/68 82/116/59
f 83/117/68 23/34/61 84/119/60 82/116/59
f 84/119/60 22/33/92 45/69/57 82/116/59
f 49/121/62 2/10/93 57/122/26 85/120/63
f 57/122/26 10/36/25 86/123/64 85/120/63
f 86/123/64 22/33/92 84/119/60 85/120/63
f 29/125/65 1/9/85 88/127/77 87/124/66
f 88/127/77 24/38/14 46/70/13 87/124/66
f 46/70/13 22/33/92 86/123/64 87/124/66
f 83/129/68 8/11/98 78/130/51 89/128/69
f 78/130/51 19/41/50 90/131/70 89/128/69
f 90/131/70 25/39/94 50/75/67 89/128/69
f 75/133/71 6/12/97 69/134/40 91/132/72
f 69/134/40 15/42/39 92/135/73 91/132/72
f 92/135/73 25/39/94 90/131/70 91/132/72
f 66/137/74 4/4/96 60/88/29 93/136/75
f 60/88/29 11/18/18 51/76/17 93/136/75
f 51/76/17 25/39/94 92/135/73 93/136/75
f 88/139/77 1/1/85 28/48/3 94/138/78
f 28/48/3 13/20/2 95/140/79 94/138/78
f 95/140/79 26/43/95 54/81/76 94/138/78
f 64/92/80 3/3/87 33/142/7 96/141/81
f 33/142/7 17/45/6 97/143/82 96/141/81
f 97/143/82 26/43/95 95/140/79 96/141/81
f 73/145/83 5/14/89 38/146/11 98/144/84
f 38/146/11 21/46/10 55/82/21 98/144/84
f 55/82/21 26/43/95 97/143/82 98/144/84
