# This file uses centimeters as units for non-parametric coordinates.

mtllib SM_Snake_Head.mtl
g default
v 56.027596 -41.929771 -85.672089
v 55.349442 14.934891 -74.794281
v 90.421211 68.959061 176.260544
v 74.701950 -65.998512 176.090881
v 64.888412 -14.560390 -80.402588
v 108.073242 -2.729261 181.759293
v 99.436569 64.603622 41.987793
v 122.451782 -2.729261 42.321594
v 73.634285 -61.615044 48.604630
v 0.000005 79.025894 41.987793
v 0.000005 25.453251 -96.062164
v 0.000005 -14.560390 -110.545349
v 0.000005 -54.912323 -92.189270
v 0.000005 -82.985306 48.604630
v 0.000005 -90.710373 179.526978
v 0.000005 -2.729261 191.265442
v 0.000005 90.710373 187.121246
v 0.000005 89.857788 126.603485
v 0.000005 -87.433655 130.755096
v 77.929893 -66.055573 135.151062
v 124.344147 -2.729261 137.124512
v 99.436569 72.801453 130.022568
v 0.000005 56.769478 -31.538330
v 0.000005 -76.165848 -25.234192
v 70.223221 -57.318287 -24.821014
v 106.172485 -2.729261 -23.095734
v 84.426765 44.428280 -24.308838
v 109.530922 14.860322 -12.863342
v 118.480354 19.509207 29.448944
v 96.326721 38.937778 -13.496490
v 106.238846 47.499451 26.781006
v 111.458221 25.347094 -2.965210
v 117.323105 27.953381 17.434937
v 106.120369 34.868416 -3.199646
v 111.970612 40.467350 16.768646
v 46.529709 -6.707073 -89.197144
v 59.230785 -10.668798 -82.079224
v 54.320530 2.973877 -79.716156
v 0.000005 67.729660 4.669678
v 91.818344 59.021805 8.339081
v 97.145432 54.724445 6.578888
v 106.683250 45.963715 6.730560
v 116.664497 21.878096 8.054871
v 118.710846 6.832368 9.442108
v 114.189224 -2.729262 9.119110
v 71.903000 -59.434219 11.337494
v 0.000005 -79.524094 11.127808
v 110.006317 17.633425 -10.236359
v 98.889893 37.847645 -10.763641
v 99.640686 52.389202 6.619110
v 107.723976 45.622990 24.123718
v 118.137115 21.740196 26.260406
v 118.131622 10.815429 9.073944
v 106.698227 -42.136642 46.526321
v 99.612091 -45.991776 10.811584
v 88.074463 -47.141567 -24.499359
v 0.000005 -14.560390 -190.486450
v 45.354912 -14.560390 -191.265411
v 21.732170 -14.560390 -100.450043
v -56.027592 -41.929771 -85.672058
v -55.349434 14.934891 -74.794250
v -90.421211 68.959061 176.260559
v -74.701935 -65.998512 176.090897
v -64.888405 -14.560390 -80.402588
v -108.073235 -2.729261 181.759308
v -99.436554 64.603622 41.987793
v -122.451767 -2.729261 42.321579
v -73.634277 -61.615044 48.604630
v -77.929886 -66.055573 135.151077
v -124.344147 -2.729261 137.124527
v -99.436554 72.801468 130.022568
v -70.223213 -57.318287 -24.820984
v -106.172485 -2.729261 -23.095734
v -84.426765 44.428280 -24.308807
v -109.530922 14.860322 -12.863342
v -118.480347 19.509207 29.448975
v -96.326721 38.937778 -13.496490
v -106.238846 47.499451 26.781006
v -111.458221 25.347092 -2.965179
v -117.323105 27.953381 17.434937
v -106.120361 34.868416 -3.199615
v -111.970604 40.467346 16.768646
v -46.529705 -6.707073 -89.197144
v -59.230774 -10.668798 -82.079193
v -54.320515 2.973877 -79.716125
v -91.818336 59.021812 8.339050
v -97.145432 54.724445 6.578918
v -106.683243 45.963715 6.730591
v -116.664497 21.878098 8.054871
v -118.710831 6.832369 9.442108
v -114.189217 -2.729262 9.119110
v -71.902992 -59.434219 11.337494
v -110.006317 17.633425 -10.236359
v -98.889877 37.847645 -10.763641
v -99.640686 52.389202 6.619141
v -107.723969 45.622990 24.123718
v -118.137115 21.740196 26.260406
v -118.131615 10.815428 9.073944
v -106.698212 -42.136642 46.526337
v -99.612083 -45.991776 10.811584
v -88.074448 -47.141567 -24.499359
v -45.354904 -14.560390 -191.265411
v -21.732162 -14.560390 -100.450043
vt 0.621858 0.223010
vt 0.708160 0.202139
vt 0.697524 0.536365
vt 0.618970 0.517941
vt 0.830507 0.262940
vt 0.907517 0.295061
vt 0.907398 0.354360
vt 0.830552 0.403381
vt 0.171621 0.313859
vt 0.293077 0.339627
vt 0.325999 0.679921
vt 0.227472 0.685552
vt 0.213734 0.163853
vt 0.310448 0.167309
vt 0.693590 0.655452
vt 0.756020 0.796906
vt 0.658176 0.829828
vt 0.611399 0.676699
vt 0.997237 0.093226
vt 0.929527 0.701149
vt 0.836920 0.627400
vt 0.861578 0.551400
vt 0.864387 0.156261
vt 0.619001 0.159913
vt 0.619549 0.017064
vt 0.711719 0.020569
vt 0.708172 0.159551
vt 0.183646 0.014313
vt 0.312455 0.011004
vt 0.010787 0.696995
vt 0.167223 0.843099
vt 0.327010 0.864172
vt 0.524664 0.014197
vt 0.526404 0.162328
vt 0.534674 0.242767
vt 0.535056 0.514306
vt 0.531541 0.672807
vt 0.554923 0.852503
vt 0.890356 0.045506
vt 0.613708 0.542942
vt 0.661226 0.570316
vt 0.665373 0.634725
vt 0.615565 0.661976
vt 0.566164 0.566604
vt 0.572131 0.636373
vt 0.829835 0.201022
vt 0.965237 0.261355
vt 0.965293 0.389247
vt 0.833353 0.453971
vt 0.710425 0.395767
vt 0.703230 0.251307
vt 0.762317 0.289328
vt 0.762967 0.362220
vt 0.869747 0.564398
vt 0.892142 0.584391
vt 0.858642 0.601578
vt 0.899607 0.501055
vt 0.990250 0.610359
vt 0.732027 0.437659
vt 0.634072 0.418018
vt 0.534869 0.420058
vt 0.289582 0.516120
vt 0.170791 0.549444
vt 0.010458 0.152723
vt 0.829557 0.178392
vt 0.681415 0.237394
vt 0.834294 0.472569
vt 0.691058 0.408054
vt 0.986357 0.401837
vt 0.986272 0.249030
vt 0.530985 0.997448
vt 0.473479 0.898570
vt 0.995271 0.796835
vt 0.947155 0.590613
vt 0.995271 0.997448
vt 0.947155 0.590613
vt 0.634072 0.418018
vt 0.732027 0.437659
vt 0.697524 0.536365
vt 0.618970 0.517941
vt 0.830507 0.262940
vt 0.907517 0.295061
vt 0.907398 0.354360
vt 0.830552 0.403381
vt 0.170791 0.549444
vt 0.289582 0.516120
vt 0.325999 0.679921
vt 0.227472 0.685552
vt 0.213734 0.163853
vt 0.310448 0.167309
vt 0.293077 0.339627
vt 0.171621 0.313859
vt 0.693590 0.655452
vt 0.756020 0.796906
vt 0.658176 0.829828
vt 0.611399 0.676699
vt 0.990250 0.610359
vt 0.929527 0.701149
vt 0.836920 0.627400
vt 0.947155 0.590613
vt 0.899607 0.501055
vt 0.619001 0.159913
vt 0.619549 0.017064
vt 0.711719 0.020569
vt 0.708172 0.159551
vt 0.183646 0.014313
vt 0.312455 0.011004
vt 0.010458 0.152723
vt 0.167223 0.843099
vt 0.010787 0.696995
vt 0.327010 0.864172
vt 0.524664 0.014197
vt 0.526404 0.162328
vt 0.534869 0.420058
vt 0.535056 0.514306
vt 0.531541 0.672807
vt 0.554923 0.852503
vt 0.890356 0.045506
vt 0.864387 0.156261
vt 0.861578 0.551400
vt 0.613708 0.542942
vt 0.661226 0.570316
vt 0.665373 0.634725
vt 0.615565 0.661976
vt 0.566164 0.566604
vt 0.572131 0.636373
vt 0.829835 0.201022
vt 0.965237 0.261355
vt 0.965293 0.389247
vt 0.833353 0.453971
vt 0.710425 0.395767
vt 0.703230 0.251307
vt 0.762317 0.289328
vt 0.762967 0.362220
vt 0.869747 0.564398
vt 0.892142 0.584391
vt 0.858642 0.601578
vt 0.986272 0.249030
vt 0.986357 0.401837
vt 0.834294 0.472569
vt 0.691058 0.408054
vt 0.681415 0.237394
vt 0.829557 0.178392
vt 0.534674 0.242767
vt 0.621858 0.223010
vt 0.708160 0.202139
vt 0.997237 0.093226
vt 0.530985 0.997448
vt 0.473479 0.898570
vt 0.995271 0.796835
vt 0.995271 0.997448
vt 0.947155 0.590613
vn 0.738276 -0.656669 -0.154060
vn 0.717447 -0.621516 -0.314623
vn 0.866601 -0.022668 -0.498487
vn 0.947040 -0.228949 -0.225163
vn 0.930307 0.238140 -0.278959
vn 0.848714 0.299421 -0.435927
vn 0.751429 0.439002 -0.492577
vn 0.799819 0.510756 -0.315306
vn 0.620503 -0.097927 0.778066
vn 0.969747 -0.221311 0.103017
vn 0.654493 0.754210 0.052974
vn 0.550159 0.597746 0.583117
vn 0.517407 -0.697690 0.495499
vn 0.556823 -0.829631 0.040748
vn 0.511619 0.654051 -0.557192
vn -0.000000 0.898642 -0.438683
vn 0.000000 0.953099 -0.302657
vn 0.432900 0.834325 -0.341320
vn 0.000000 0.259768 -0.965671
vn -0.000000 0.642729 -0.766094
vn 0.451246 0.461859 -0.763586
vn -0.000000 -0.200300 -0.979735
vn 0.425535 0.016008 -0.904800
vn 0.501032 -0.452484 -0.737716
vn 0.369559 -0.926318 -0.073226
vn 0.000000 -0.996658 -0.081688
vn -0.000000 -0.981167 -0.193160
vn 0.365770 -0.909174 -0.199033
vn 0.000000 -0.749323 0.662204
vn 0.000000 -0.999098 -0.042461
vn 0.000000 -0.032029 0.999487
vn 0.000000 0.711175 0.703015
vn 0.000000 0.999471 -0.032511
vn 0.000000 -0.997490 -0.070814
vn 0.446187 -0.894356 -0.032330
vn 0.797348 -0.601388 -0.050693
vn 0.998695 -0.027292 -0.043171
vn 0.668438 0.737014 -0.100006
vn 0.000000 0.984168 -0.177238
vn -0.000000 -0.746553 -0.665326
vn 0.606029 0.090940 -0.790227
vn 0.976156 0.005327 -0.217006
vn 0.854818 0.178671 -0.487200
vn 0.679290 0.486616 -0.549337
vn 0.697467 0.643826 -0.314687
vn 0.977920 0.204947 0.040865
vn 0.846437 0.532124 0.019721
vn 0.970138 0.112894 -0.214678
vn 0.848110 0.263716 -0.459524
vn 0.697847 0.476753 -0.534524
vn 0.701203 0.651894 -0.288703
vn 0.818132 0.568966 0.083295
vn 0.963818 0.257443 0.069118
vn 0.955311 0.291186 -0.050905
vn 0.860919 0.507643 -0.033419
vn 0.482822 0.220445 -0.847518
vn 0.444778 0.188298 -0.875624
vn 0.446800 0.353460 -0.821849
vn 0.000000 1.000000 -0.000000
vn 0.000000 1.000000 -0.000000
vn 0.000000 1.000000 -0.000000
vn 0.000000 1.000000 -0.000000
vn -0.738276 -0.656669 -0.154060
vn -0.947040 -0.228949 -0.225163
vn -0.866600 -0.022668 -0.498488
vn -0.717447 -0.621516 -0.314623
vn -0.930307 0.238141 -0.278959
vn -0.799819 0.510756 -0.315306
vn -0.751429 0.439002 -0.492577
vn -0.848713 0.299422 -0.435927
vn -0.620503 -0.097927 0.778066
vn -0.550159 0.597746 0.583117
vn -0.654493 0.754210 0.052974
vn -0.969747 -0.221311 0.103017
vn -0.517406 -0.697690 0.495499
vn -0.556823 -0.829631 0.040748
vn -0.511619 0.654051 -0.557192
vn -0.432900 0.834325 -0.341320
vn -0.451246 0.461859 -0.763586
vn -0.501033 -0.452485 -0.737715
vn -0.425535 0.016008 -0.904800
vn -0.369559 -0.926317 -0.073226
vn -0.365770 -0.909174 -0.199033
vn -0.446187 -0.894356 -0.032330
vn -0.998695 -0.027292 -0.043171
vn -0.797348 -0.601388 -0.050693
vn -0.668438 0.737014 -0.100006
vn -0.606028 0.090940 -0.790228
vn -0.976156 0.005327 -0.217005
vn -0.854818 0.178671 -0.487200
vn -0.679290 0.486616 -0.549336
vn -0.697468 0.643825 -0.314687
vn -0.846437 0.532124 0.019720
vn -0.977920 0.204947 0.040865
vn -0.970138 0.112893 -0.214678
vn -0.848110 0.263717 -0.459523
vn -0.697848 0.476753 -0.534523
vn -0.701203 0.651893 -0.288702
vn -0.818132 0.568966 0.083295
vn -0.860919 0.507643 -0.033419
vn -0.955311 0.291187 -0.050905
vn -0.963819 0.257442 0.069118
vn -0.482823 0.220445 -0.847518
vn -0.446800 0.353461 -0.821849
vn -0.444779 0.188298 -0.875623
vn 0.000000 1.000000 0.000000
vn 0.000000 1.000000 0.000000
s 1
g SM_Head
usemtl initialShadingGroup
f 55/60/1 56/59/2 26/3/3 45/4/4
f 43/5/5 32/6/6 34/7/7 42/8/8
f 6/63/9 21/62/10 22/11/11 3/12/12
f 4/13/13 20/14/14 21/10/10 6/9/9
f 27/15/15 23/16/16 39/17/17 40/18/18
f 12/58/19 11/20/20 2/21/21
f 12/58/22 59/74/23 1/57/24
f 46/24/25 47/25/26 24/26/27 25/27/28
f 4/13/13 15/28/29 19/29/30 20/14/14
f 6/9/9 16/64/31 15/28/29 4/13/13
f 3/12/12 17/31/32 16/30/31 6/63/9
f 22/11/11 18/32/33 17/31/32 3/12/12
f 20/14/14 19/29/30 14/33/34 9/34/35
f 21/62/10 54/61/36 8/36/37
f 22/11/11 21/62/10 8/36/37 7/37/38
f 7/37/38 10/38/39 18/32/33 22/11/11
f 25/27/28 24/26/27 13/39/40 1/23/24
f 26/3/3 56/59/2 1/57/24 5/22/41
f 27/15/15 26/3/3 5/22/41 2/21/21
f 2/21/21 11/20/20 23/16/16 27/15/15
f 44/40/42 45/4/4 26/3/3 28/41/43
f 26/3/3 27/15/15 30/42/44 28/41/43
f 27/15/15 40/18/18 41/43/45 30/42/44
f 7/37/38 8/36/37 29/44/46 31/45/47
f 53/46/48 48/47/49 32/6/6 43/5/5
f 48/47/49 49/48/50 34/7/7 32/6/6
f 49/48/50 50/49/51 42/8/8 34/7/7
f 51/50/52 52/51/53 33/52/54 35/53/55
f 37/54/56 36/55/57 38/56/58
f 36/55/57 12/58/19 2/21/21 38/56/58
f 2/21/21 5/22/41 37/54/56 38/56/58
f 40/18/18 39/17/17 10/38/39 7/37/38
f 40/18/18 7/37/38 31/45/47 41/43/45
f 42/8/8 50/49/51 51/50/52 35/53/55
f 33/52/54 43/5/5 42/8/8 35/53/55
f 52/51/53 53/46/48 43/5/5 33/52/54
f 8/36/37 45/4/4 44/40/42 29/44/46
f 54/61/36 55/60/1 45/4/4 8/36/37
f 9/34/35 14/33/34 47/25/26 46/24/25
f 28/70/43 30/69/44 49/48/50 48/47/49
f 30/69/44 41/67/45 50/49/51 49/48/50
f 51/50/52 50/49/51 41/67/45 31/68/47
f 31/68/47 29/66/46 52/51/53 51/50/52
f 29/66/46 44/65/42 53/46/48 52/51/53
f 44/65/42 28/70/43 48/47/49 53/46/48
f 21/10/10 20/14/14 9/34/35 54/35/36
f 9/34/35 46/24/25 55/1/1 54/35/36
f 46/24/25 25/27/28 56/2/2 55/1/1
f 1/23/24 56/2/2 25/27/28
f 12/19/22 1/23/24 13/39/40
s 2
f 12/71/59 59/72/60 58/73/61 57/75/62
s 1
f 5/22/41 59/76/23 36/55/57 37/54/56
f 1/57/24 59/74/23 5/22/41
f 36/55/57 59/76/23 12/58/19
f 100/77/63 91/80/64 73/79/65 101/78/66
f 89/81/67 88/84/68 81/83/69 79/82/70
f 65/85/71 62/88/72 71/87/73 70/86/74
f 63/89/75 65/92/71 70/91/74 69/90/76
f 74/93/77 86/96/78 39/95/17 23/94/16
f 12/97/19 61/99/79 11/98/20
f 12/97/22 60/101/80 103/100/81
f 92/102/82 72/105/83 24/104/27 47/103/26
f 63/89/75 69/90/76 19/107/30 15/106/29
f 65/92/71 63/89/75 15/106/29 16/108/31
f 62/88/72 65/85/71 16/110/31 17/109/32
f 71/87/73 62/88/72 17/109/32 18/111/33
f 69/90/76 68/113/84 14/112/34 19/107/30
f 70/86/74 67/115/85 99/114/86
f 71/87/73 66/116/87 67/115/85 70/86/74
f 66/116/87 71/87/73 18/111/33 10/117/39
f 72/105/83 60/119/80 13/118/40 24/104/27
f 73/79/65 64/120/88 60/101/80 101/78/66
f 74/93/77 61/99/79 64/120/88 73/79/65
f 61/99/79 74/93/77 23/94/16 11/98/20
f 90/121/89 75/122/90 73/79/65 91/80/64
f 73/79/65 75/122/90 77/123/91 74/93/77
f 74/93/77 77/123/91 87/124/92 86/96/78
f 66/116/87 78/126/93 76/125/94 67/115/85
f 98/127/95 89/81/67 79/82/70 93/128/96
f 93/128/96 79/82/70 81/83/69 94/129/97
f 94/129/97 81/83/69 88/84/68 95/130/98
f 96/131/99 82/134/100 80/133/101 97/132/102
f 84/135/103 85/137/104 83/136/105
f 83/136/105 85/137/104 61/99/79 12/97/19
f 61/99/79 85/137/104 84/135/103 64/120/88
f 86/96/78 66/116/87 10/117/39 39/95/17
f 86/96/78 87/124/92 78/126/93 66/116/87
f 88/84/68 82/134/100 96/131/99 95/130/98
f 80/133/101 82/134/100 88/84/68 89/81/67
f 97/132/102 80/133/101 89/81/67 98/127/95
f 67/115/85 76/125/94 90/121/89 91/80/64
f 99/114/86 67/115/85 91/80/64 100/77/63
f 68/113/84 92/102/82 47/103/26 14/112/34
f 75/138/90 93/128/96 94/129/97 77/139/91
f 77/139/91 94/129/97 95/130/98 87/140/92
f 96/131/99 78/141/93 87/140/92 95/130/98
f 78/141/93 96/131/99 97/132/102 76/142/94
f 76/142/94 97/132/102 98/127/95 90/143/89
f 90/143/89 98/127/95 93/128/96 75/138/90
f 70/91/74 99/144/86 68/113/84 69/90/76
f 68/113/84 99/144/86 100/145/63 92/102/82
f 92/102/82 100/145/63 101/146/66 72/105/83
f 60/119/80 72/105/83 101/146/66
f 12/147/22 13/118/40 60/119/80
s 2
f 12/148/59 57/151/62 102/150/106 103/149/107
s 1
f 64/120/88 84/135/103 83/136/105 103/152/81
f 60/101/80 64/120/88 103/100/81
f 83/136/105 12/97/19 103/152/81
